# xmcd CD database file
#
# Track frame offsets:
#	150
#	17318
#	33579
#	59857
#	72010
#	87088
#	111727
#	123900
#	140577
#	151438
#	168771
#	188161
#	204478
#	238079
#	266993
#	290094
#	311504
#
# Disc length: 4381 seconds
#
# Revision: 5
# Processed by: cddbd v1.5.2PL0 Copyright (c) Steve Scherf et al.
# Submitted via: CDex 1.70beta2
#
DISCID=fd111b11
DTITLE=Royce - Headaches
DYEAR=2001
DGENRE=Jazz
TTITLE0=Calendar Notes
TTITLE1=Sundowner
TTITLE2=The Roofers Wishless Daughter
TTITLE3=The Wind, the Rain and the Asthma
TTITLE4=Thanks to the Pages
TTITLE5=Benjamin Franklin's Lawnmower
TTITLE6=1 Year Ago, 5 Minutes From Now
TTITLE7=Sheee
TTITLE8=Getting Off The Bus
TTITLE9=Snake Charmer
TTITLE10=Paperdoll
TTITLE11=Bluebird 
TTITLE12=Swim Lessons
TTITLE13=Ends with Anne
TTITLE14=Creed and Hayes
TTITLE15=Blue
TTITLE16=We Three Kings
EXTD=YEAR: 2001
EXTT0=
EXTT1=
EXTT2=
EXTT3=
EXTT4=
EXTT5=
EXTT6=
EXTT7=
EXTT8=
EXTT9=
EXTT10=
EXTT11=
EXTT12=
EXTT13=
EXTT14=
EXTT15=
EXTT16=
PLAYORDER=
